<svg viewBox="0 0 447 165" fill="none" xmlns="http://www.w3.org/2000/svg">
<path fill-rule="evenodd" clip-rule="evenodd" d="M15.7133 44.2329C13.3543 29.8358 25.2264 23.2371 31.8626 20.5527C37.6693 18.3762 45.7037 16.4818 45.7037 16.4818C45.7037 16.4818 80.6928 7.66742 96.1773 4.83794C111.662 2.00847 127.749 5.52162 133.154 14.916C138.198 23.6842 138.242 31.7508 133.154 38.7152C128.538 45.0339 109.064 49.6244 100.323 51.6849L100.32 51.6856C99.532 51.8714 98.8313 52.0366 98.2367 52.1806C94.3708 53.1169 81.562 56.5281 68.9818 60.0092C67.0756 60.5367 65.1747 61.0696 63.311 61.5921C54.834 63.9685 47.1251 66.1295 43.1871 66.5853C29.6607 68.1511 18.9653 64.0802 15.7133 44.2329ZM88.6864 28.1802C88.5695 29.9617 89.0334 32.334 90.2805 34.7705C91.0692 36.3115 90.4538 38.1971 88.9058 38.9823C87.3578 39.7675 85.4636 39.1548 84.6749 37.6138C83.0036 34.3487 82.2059 30.8591 82.4084 27.7722C82.6057 24.7628 83.8451 21.5164 86.9318 19.9507C90.0185 18.3851 93.3853 19.2952 95.947 20.9051C98.5747 22.5565 100.942 25.2501 102.613 28.5152C103.402 30.0561 102.786 31.9418 101.238 32.727C99.6903 33.5122 97.796 32.8995 97.0073 31.3585C95.7602 28.9221 94.1049 27.154 92.5885 26.201C91.006 25.2064 90.1068 25.3693 89.788 25.5311C89.4692 25.6928 88.8083 26.3212 88.6864 28.1802ZM58.2864 41.2204C58.2864 38.4859 58.955 36.1625 59.8716 34.628C60.828 33.0266 61.7034 32.7654 62.0613 32.7654C62.4191 32.7654 63.2945 33.0266 64.251 34.628C65.1675 36.1625 65.8361 38.4859 65.8361 41.2204C65.8361 42.9499 67.2445 44.3519 68.9818 44.3519C70.7191 44.3519 72.1275 42.9499 72.1275 41.2204C72.1275 37.5559 71.2468 34.0861 69.6586 31.4271C68.1104 28.835 65.5255 26.5025 62.0613 26.5025C58.597 26.5025 56.0122 28.835 54.4639 31.4271C52.8757 34.0861 51.9951 37.5559 51.9951 41.2204C51.9951 42.9499 53.4034 44.3519 55.1407 44.3519C56.8781 44.3519 58.2864 42.9499 58.2864 41.2204Z" fill="#282626"/>
<path d="M112.707 121.699C108.863 122.418 106.127 119.118 98.5513 113.244C91.0854 107.456 84.2812 102.432 77.1606 98.9904C83.7665 95.2326 98.8029 92.7018 103.584 91.9503C108.366 91.1987 116.587 93.8291 120.257 95.0817C122.582 100.518 124.471 104.736 121.515 111.992C118.642 119.044 116.402 121.008 112.707 121.699Z" fill="#282626"/>
<path d="M3.2369 60.9487C0.972003 40.1557 15.5051 27.2332 23.0547 23.371C29.6607 20.2395 37.2103 18.6738 37.2103 18.6738C37.2103 18.6738 77.1606 8.33997 94.7764 4.26905C112.392 0.198138 132.21 5.83476 139.76 22.4316C146.967 38.2759 143.849 47.7965 138.816 58.4435C131.869 73.1391 104.843 79.7375 96.6638 82.2427C88.5684 84.7224 56.1447 94.5955 44.1308 95.708C30.6044 96.9606 6.06802 86.9399 3.2369 60.9487Z" stroke="#282626" stroke-width="5"/>
<path fill-rule="evenodd" clip-rule="evenodd" d="M15.7133 44.2329C13.3543 29.8358 25.2264 23.2371 31.8626 20.5527C37.6693 18.3762 45.7037 16.4818 45.7037 16.4818C45.7037 16.4818 80.6928 7.66742 96.1773 4.83794C111.662 2.00847 127.749 5.52162 133.154 14.916C138.198 23.6842 138.242 31.7508 133.154 38.7152C128.538 45.0339 109.064 49.6244 100.323 51.6849L100.32 51.6856C99.532 51.8714 98.8313 52.0366 98.2367 52.1806C94.3708 53.1169 81.562 56.5281 68.9818 60.0092C67.0756 60.5367 65.1747 61.0696 63.311 61.5921C54.834 63.9685 47.1251 66.1295 43.1871 66.5853C29.6607 68.1511 18.9653 64.0802 15.7133 44.2329ZM88.6864 28.1802C88.5695 29.9617 89.0334 32.334 90.2805 34.7705C91.0692 36.3115 90.4538 38.1971 88.9058 38.9823C87.3578 39.7675 85.4636 39.1548 84.6749 37.6138C83.0036 34.3487 82.2059 30.8591 82.4084 27.7722C82.6057 24.7628 83.8451 21.5164 86.9318 19.9507C90.0185 18.3851 93.3853 19.2952 95.947 20.9051C98.5747 22.5565 100.942 25.2501 102.613 28.5152C103.402 30.0561 102.786 31.9418 101.238 32.727C99.6903 33.5122 97.796 32.8995 97.0073 31.3585C95.7602 28.9221 94.1049 27.154 92.5885 26.201C91.006 25.2064 90.1068 25.3693 89.788 25.5311C89.4692 25.6928 88.8083 26.3212 88.6864 28.1802ZM58.2864 41.2204C58.2864 38.4859 58.955 36.1625 59.8716 34.628C60.828 33.0266 61.7034 32.7654 62.0613 32.7654C62.4191 32.7654 63.2945 33.0266 64.251 34.628C65.1675 36.1625 65.8361 38.4859 65.8361 41.2204C65.8361 42.9499 67.2445 44.3519 68.9818 44.3519C70.7191 44.3519 72.1275 42.9499 72.1275 41.2204C72.1275 37.5559 71.2468 34.0861 69.6586 31.4271C68.1104 28.835 65.5255 26.5025 62.0613 26.5025C58.597 26.5025 56.0122 28.835 54.4639 31.4271C52.8757 34.0861 51.9951 37.5559 51.9951 41.2204C51.9951 42.9499 53.4034 44.3519 55.1407 44.3519C56.8781 44.3519 58.2864 42.9499 58.2864 41.2204Z" stroke="#282626" stroke-width="5"/>
<path d="M76.2169 99.1527C84.7731 95.1444 94.4618 92.8898 98.2367 92.2635C107.254 90.9065 122.773 90.3845 128.435 104.476C132.395 114.33 131.896 125.77 126.862 138.922C121.971 151.705 112.078 160.216 105.786 161.469C99.2429 162.772 95.091 162.408 82.1937 151.761C69.2963 141.114 65.8361 124.518 64.8924 118.255C63.9487 111.992 65.5215 104.163 76.2169 99.1527Z" stroke="#282626" stroke-width="5"/>
<path d="M112.707 121.699C108.863 122.418 106.127 119.118 98.5513 113.244C91.0854 107.456 84.2812 102.432 77.1606 98.9904C83.7665 95.2326 98.8029 92.7018 103.584 91.9503C108.366 91.1987 116.587 93.8291 120.257 95.0817C122.582 100.518 124.471 104.736 121.515 111.992C118.642 119.044 116.402 121.008 112.707 121.699Z" stroke="#282626" stroke-width="5"/>
<path d="M69 42.5C69 35.5964 65.866 30 62 30C58.134 30 55 35.5964 55 42.5" stroke="white" stroke-width="5" stroke-linecap="round"/>
<path d="M99.3069 32.819C97.0593 26.2916 92.274 22.0204 88.6186 23.279C84.9633 24.5377 83.822 30.8495 86.0696 37.377" stroke="white" stroke-width="5" stroke-linecap="round"/>
<path d="M200.2 93.6C200.2 97.7333 199.6 101.533 198.4 105C197.2 108.4 195.467 111.333 193.2 113.8C190.933 116.2 188.2 118.067 185 119.4C181.867 120.733 178.333 121.4 174.4 121.4C170.533 121.4 167 120.733 163.8 119.4C160.667 118.067 157.967 116.2 155.7 113.8C153.433 111.333 151.667 108.4 150.4 105C149.133 101.533 148.5 97.7333 148.5 93.6C148.5 89.4667 149.133 85.7 150.4 82.3C151.733 78.9 153.533 76 155.8 73.6C158.133 71.2 160.867 69.3333 164 68C167.2 66.6667 170.667 66 174.4 66C178.2 66 181.667 66.6667 184.8 68C188 69.3333 190.733 71.2 193 73.6C195.267 76 197.033 78.9 198.3 82.3C199.567 85.7 200.2 89.4667 200.2 93.6ZM185 93.6C185 89 184.067 85.4 182.2 82.8C180.4 80.1333 177.8 78.8 174.4 78.8C171 78.8 168.367 80.1333 166.5 82.8C164.633 85.4 163.7 89 163.7 93.6C163.7 98.2 164.633 101.867 166.5 104.6C168.367 107.267 171 108.6 174.4 108.6C177.8 108.6 180.4 107.267 182.2 104.6C184.067 101.867 185 98.2 185 93.6ZM211.242 54.3L226.142 51.9V67.4H244.042V79.8H226.142V98.3C226.142 101.433 226.676 103.933 227.742 105.8C228.876 107.667 231.109 108.6 234.442 108.6C236.042 108.6 237.676 108.467 239.342 108.2C241.076 107.867 242.642 107.433 244.042 106.9L246.142 118.5C244.342 119.233 242.342 119.867 240.142 120.4C237.942 120.933 235.242 121.2 232.042 121.2C227.976 121.2 224.609 120.667 221.942 119.6C219.276 118.467 217.142 116.933 215.542 115C213.942 113 212.809 110.6 212.142 107.8C211.542 105 211.242 101.9 211.242 98.5V54.3ZM290.976 62.7C283.709 62.7 278.442 64.7333 275.176 68.8C271.976 72.8 270.376 78.3 270.376 85.3C270.376 88.7 270.776 91.8 271.576 94.6C272.376 97.3333 273.576 99.7 275.176 101.7C276.776 103.7 278.776 105.267 281.176 106.4C283.576 107.467 286.376 108 289.576 108C291.309 108 292.776 107.967 293.976 107.9C295.242 107.833 296.342 107.7 297.276 107.5V83.4H312.876V117.7C311.009 118.433 308.009 119.2 303.876 120C299.742 120.867 294.642 121.3 288.576 121.3C283.376 121.3 278.642 120.5 274.376 118.9C270.176 117.3 266.576 114.967 263.576 111.9C260.576 108.833 258.242 105.067 256.576 100.6C254.976 96.1333 254.176 91.0333 254.176 85.3C254.176 79.5 255.076 74.3667 256.876 69.9C258.676 65.4333 261.142 61.6667 264.276 58.6C267.409 55.4667 271.076 53.1 275.276 51.5C279.542 49.9 284.076 49.1 288.876 49.1C292.142 49.1 295.076 49.3333 297.676 49.8C300.342 50.2 302.609 50.7 304.476 51.3C306.409 51.8333 307.976 52.4 309.176 53C310.442 53.6 311.342 54.0667 311.876 54.4L307.376 66.9C305.242 65.7667 302.776 64.8 299.976 64C297.242 63.1333 294.242 62.7 290.976 62.7ZM348.191 49.9C358.524 49.9 366.457 51.7333 371.991 55.4C377.524 59 380.291 64.9333 380.291 73.2C380.291 81.5333 377.491 87.5667 371.891 91.3C366.291 94.9667 358.291 96.8 347.891 96.8H342.991V120H327.391V51.7C330.791 51.0333 334.391 50.5667 338.191 50.3C341.991 50.0333 345.324 49.9 348.191 49.9ZM349.191 63.2C348.057 63.2 346.924 63.2333 345.791 63.3C344.724 63.3667 343.791 63.4333 342.991 63.5V83.5H347.891C353.291 83.5 357.357 82.7667 360.091 81.3C362.824 79.8333 364.191 77.1 364.191 73.1C364.191 71.1667 363.824 69.5667 363.091 68.3C362.424 67.0333 361.424 66.0333 360.091 65.3C358.824 64.5 357.257 63.9667 355.391 63.7C353.524 63.3667 351.457 63.2 349.191 63.2ZM444.416 50.7V64H423.516V120H407.916V64H387.016V50.7H444.416Z" fill="#282626"/>
</svg>
