<svg viewBox="0 0 514 165" fill="none" xmlns="http://www.w3.org/2000/svg">
<path fill-rule="evenodd" clip-rule="evenodd" d="M15.7133 44.2329C13.3543 29.8358 25.2264 23.2371 31.8626 20.5527C37.6693 18.3762 45.7037 16.4818 45.7037 16.4818C45.7037 16.4818 80.6928 7.66742 96.1773 4.83794C111.662 2.00847 127.749 5.52162 133.154 14.916C138.198 23.6842 138.242 31.7508 133.154 38.7152C128.538 45.0339 109.064 49.6244 100.323 51.6849L100.32 51.6856C99.532 51.8714 98.8313 52.0366 98.2367 52.1806C94.3708 53.1169 81.562 56.5281 68.9818 60.0092C67.0756 60.5367 65.1747 61.0696 63.311 61.5921C54.834 63.9685 47.1251 66.1295 43.1871 66.5853C29.6607 68.1511 18.9653 64.0802 15.7133 44.2329ZM88.6864 28.1802C88.5695 29.9617 89.0334 32.334 90.2805 34.7705C91.0692 36.3115 90.4538 38.1971 88.9058 38.9823C87.3578 39.7675 85.4636 39.1548 84.6749 37.6138C83.0036 34.3487 82.2059 30.8591 82.4084 27.7722C82.6057 24.7628 83.8451 21.5164 86.9318 19.9507C90.0185 18.3851 93.3853 19.2952 95.947 20.9051C98.5747 22.5565 100.942 25.2501 102.613 28.5152C103.402 30.0561 102.786 31.9418 101.238 32.727C99.6903 33.5122 97.796 32.8995 97.0073 31.3585C95.7602 28.9221 94.1049 27.154 92.5885 26.201C91.006 25.2064 90.1068 25.3693 89.788 25.5311C89.4692 25.6928 88.8083 26.3212 88.6864 28.1802ZM58.2864 41.2204C58.2864 38.4859 58.955 36.1625 59.8716 34.628C60.828 33.0266 61.7034 32.7654 62.0613 32.7654C62.4191 32.7654 63.2945 33.0266 64.251 34.628C65.1675 36.1625 65.8361 38.4859 65.8361 41.2204C65.8361 42.9499 67.2445 44.3519 68.9818 44.3519C70.7191 44.3519 72.1275 42.9499 72.1275 41.2204C72.1275 37.5559 71.2468 34.0861 69.6586 31.4271C68.1104 28.835 65.5255 26.5025 62.0613 26.5025C58.597 26.5025 56.0122 28.835 54.4639 31.4271C52.8757 34.0861 51.9951 37.5559 51.9951 41.2204C51.9951 42.9499 53.4034 44.3519 55.1407 44.3519C56.8781 44.3519 58.2864 42.9499 58.2864 41.2204Z" fill="#282626"/>
<path d="M112.707 121.699C108.863 122.418 106.127 119.118 98.5513 113.244C91.0854 107.456 84.2812 102.432 77.1606 98.9904C83.7665 95.2326 98.8029 92.7018 103.584 91.9503C108.366 91.1987 116.587 93.8291 120.257 95.0817C122.582 100.518 124.471 104.736 121.515 111.992C118.642 119.044 116.402 121.008 112.707 121.699Z" fill="#282626"/>
<path d="M3.2369 60.9487C0.972003 40.1557 15.5051 27.2332 23.0547 23.371C29.6607 20.2395 37.2103 18.6738 37.2103 18.6738C37.2103 18.6738 77.1606 8.33997 94.7764 4.26905C112.392 0.198138 132.21 5.83476 139.76 22.4316C146.967 38.2759 143.849 47.7965 138.816 58.4435C131.869 73.1391 104.843 79.7375 96.6638 82.2427C88.5684 84.7224 56.1447 94.5955 44.1308 95.708C30.6044 96.9606 6.06802 86.9399 3.2369 60.9487Z" stroke="#282626" stroke-width="5"/>
<path fill-rule="evenodd" clip-rule="evenodd" d="M15.7133 44.2329C13.3543 29.8358 25.2264 23.2371 31.8626 20.5527C37.6693 18.3762 45.7037 16.4818 45.7037 16.4818C45.7037 16.4818 80.6928 7.66742 96.1773 4.83794C111.662 2.00847 127.749 5.52162 133.154 14.916C138.198 23.6842 138.242 31.7508 133.154 38.7152C128.538 45.0339 109.064 49.6244 100.323 51.6849L100.32 51.6856C99.532 51.8714 98.8313 52.0366 98.2367 52.1806C94.3708 53.1169 81.562 56.5281 68.9818 60.0092C67.0756 60.5367 65.1747 61.0696 63.311 61.5921C54.834 63.9685 47.1251 66.1295 43.1871 66.5853C29.6607 68.1511 18.9653 64.0802 15.7133 44.2329ZM88.6864 28.1802C88.5695 29.9617 89.0334 32.334 90.2805 34.7705C91.0692 36.3115 90.4538 38.1971 88.9058 38.9823C87.3578 39.7675 85.4636 39.1548 84.6749 37.6138C83.0036 34.3487 82.2059 30.8591 82.4084 27.7722C82.6057 24.7628 83.8451 21.5164 86.9318 19.9507C90.0185 18.3851 93.3853 19.2952 95.947 20.9051C98.5747 22.5565 100.942 25.2501 102.613 28.5152C103.402 30.0561 102.786 31.9418 101.238 32.727C99.6903 33.5122 97.796 32.8995 97.0073 31.3585C95.7602 28.9221 94.1049 27.154 92.5885 26.201C91.006 25.2064 90.1068 25.3693 89.788 25.5311C89.4692 25.6928 88.8083 26.3212 88.6864 28.1802ZM58.2864 41.2204C58.2864 38.4859 58.955 36.1625 59.8716 34.628C60.828 33.0266 61.7034 32.7654 62.0613 32.7654C62.4191 32.7654 63.2945 33.0266 64.251 34.628C65.1675 36.1625 65.8361 38.4859 65.8361 41.2204C65.8361 42.9499 67.2445 44.3519 68.9818 44.3519C70.7191 44.3519 72.1275 42.9499 72.1275 41.2204C72.1275 37.5559 71.2468 34.0861 69.6586 31.4271C68.1104 28.835 65.5255 26.5025 62.0613 26.5025C58.597 26.5025 56.0122 28.835 54.4639 31.4271C52.8757 34.0861 51.9951 37.5559 51.9951 41.2204C51.9951 42.9499 53.4034 44.3519 55.1407 44.3519C56.8781 44.3519 58.2864 42.9499 58.2864 41.2204Z" stroke="#282626" stroke-width="5"/>
<path d="M76.2169 99.1527C84.7731 95.1444 94.4618 92.8898 98.2367 92.2635C107.254 90.9065 122.773 90.3845 128.435 104.476C132.395 114.33 131.896 125.77 126.862 138.922C121.971 151.705 112.078 160.216 105.786 161.469C99.2429 162.772 95.091 162.408 82.1937 151.761C69.2963 141.114 65.8361 124.518 64.8924 118.255C63.9487 111.992 65.5215 104.163 76.2169 99.1527Z" stroke="#282626" stroke-width="5"/>
<path d="M112.707 121.699C108.863 122.418 106.127 119.118 98.5513 113.244C91.0854 107.456 84.2812 102.432 77.1606 98.9904C83.7665 95.2326 98.8029 92.7018 103.584 91.9503C108.366 91.1987 116.587 93.8291 120.257 95.0817C122.582 100.518 124.471 104.736 121.515 111.992C118.642 119.044 116.402 121.008 112.707 121.699Z" stroke="#282626" stroke-width="5"/>
<path d="M69 42.5C69 35.5964 65.866 30 62 30C58.134 30 55 35.5964 55 42.5" stroke="white" stroke-width="5" stroke-linecap="round"/>
<path d="M99.3069 32.819C97.0593 26.2916 92.274 22.0204 88.6186 23.279C84.9633 24.5377 83.822 30.8495 86.0696 37.377" stroke="white" stroke-width="5" stroke-linecap="round"/>
<path d="M175.1 125.9C171.3 125.9 167.5 125.767 163.7 125.5C159.967 125.3 156.067 124.767 152 123.9V56.7C155.2 56.1 158.7 55.6667 162.5 55.4C166.3 55.0667 169.833 54.9 173.1 54.9C177.5 54.9 181.533 55.2333 185.2 55.9C188.933 56.5 192.133 57.5667 194.8 59.1C197.467 60.6333 199.533 62.6667 201 65.2C202.533 67.6667 203.3 70.7333 203.3 74.4C203.3 79.9333 200.633 84.3 195.3 87.5C199.7 89.1667 202.7 91.4333 204.3 94.3C205.9 97.1667 206.7 100.4 206.7 104C206.7 111.267 204.033 116.733 198.7 120.4C193.433 124.067 185.567 125.9 175.1 125.9ZM167.2 94.8V112.7C168.333 112.833 169.567 112.933 170.9 113C172.233 113.067 173.7 113.1 175.3 113.1C179.967 113.1 183.733 112.433 186.6 111.1C189.467 109.767 190.9 107.3 190.9 103.7C190.9 100.5 189.7 98.2333 187.3 96.9C184.9 95.5 181.467 94.8 177 94.8H167.2ZM167.2 82.9H174.8C179.6 82.9 183.033 82.3 185.1 81.1C187.167 79.8333 188.2 77.8333 188.2 75.1C188.2 72.3 187.133 70.3333 185 69.2C182.867 68.0667 179.733 67.5 175.6 67.5C174.267 67.5 172.833 67.5333 171.3 67.6C169.767 67.6 168.4 67.6667 167.2 67.8V82.9ZM267.388 98.6C267.388 102.733 266.788 106.533 265.588 110C264.388 113.4 262.654 116.333 260.388 118.8C258.121 121.2 255.388 123.067 252.188 124.4C249.054 125.733 245.521 126.4 241.588 126.4C237.721 126.4 234.188 125.733 230.988 124.4C227.854 123.067 225.154 121.2 222.888 118.8C220.621 116.333 218.854 113.4 217.588 110C216.321 106.533 215.688 102.733 215.688 98.6C215.688 94.4667 216.321 90.7 217.588 87.3C218.921 83.9 220.721 81 222.988 78.6C225.321 76.2 228.054 74.3333 231.188 73C234.388 71.6667 237.854 71 241.588 71C245.388 71 248.854 71.6667 251.988 73C255.188 74.3333 257.921 76.2 260.188 78.6C262.454 81 264.221 83.9 265.488 87.3C266.754 90.7 267.388 94.4667 267.388 98.6ZM252.188 98.6C252.188 94 251.254 90.4 249.388 87.8C247.588 85.1333 244.988 83.8 241.588 83.8C238.188 83.8 235.554 85.1333 233.688 87.8C231.821 90.4 230.888 94 230.888 98.6C230.888 103.2 231.821 106.867 233.688 109.6C235.554 112.267 238.188 113.6 241.588 113.6C244.988 113.6 247.588 112.267 249.388 109.6C251.254 106.867 252.188 103.2 252.188 98.6ZM278.43 59.3L293.33 56.9V72.4H311.23V84.8H293.33V103.3C293.33 106.433 293.863 108.933 294.93 110.8C296.063 112.667 298.296 113.6 301.63 113.6C303.23 113.6 304.863 113.467 306.53 113.2C308.263 112.867 309.83 112.433 311.23 111.9L313.33 123.5C311.53 124.233 309.53 124.867 307.33 125.4C305.13 125.933 302.43 126.2 299.23 126.2C295.163 126.2 291.796 125.667 289.13 124.6C286.463 123.467 284.33 121.933 282.73 120C281.13 118 279.996 115.6 279.33 112.8C278.73 110 278.43 106.9 278.43 103.5V59.3ZM358.163 67.7C350.897 67.7 345.63 69.7333 342.363 73.8C339.163 77.8 337.563 83.3 337.563 90.3C337.563 93.7 337.963 96.8 338.763 99.6C339.563 102.333 340.763 104.7 342.363 106.7C343.963 108.7 345.963 110.267 348.363 111.4C350.763 112.467 353.563 113 356.763 113C358.497 113 359.963 112.967 361.163 112.9C362.43 112.833 363.53 112.7 364.463 112.5V88.4H380.063V122.7C378.197 123.433 375.197 124.2 371.063 125C366.93 125.867 361.83 126.3 355.763 126.3C350.563 126.3 345.83 125.5 341.563 123.9C337.363 122.3 333.763 119.967 330.763 116.9C327.763 113.833 325.43 110.067 323.763 105.6C322.163 101.133 321.363 96.0333 321.363 90.3C321.363 84.5 322.263 79.3667 324.063 74.9C325.863 70.4333 328.33 66.6667 331.463 63.6C334.597 60.4667 338.263 58.1 342.463 56.5C346.73 54.9 351.263 54.1 356.063 54.1C359.33 54.1 362.263 54.3333 364.863 54.8C367.53 55.2 369.797 55.7 371.663 56.3C373.597 56.8333 375.163 57.4 376.363 58C377.63 58.6 378.53 59.0667 379.063 59.4L374.563 71.9C372.43 70.7667 369.963 69.8 367.163 69C364.43 68.1333 361.43 67.7 358.163 67.7ZM415.378 54.9C425.711 54.9 433.645 56.7333 439.178 60.4C444.711 64 447.478 69.9333 447.478 78.2C447.478 86.5333 444.678 92.5667 439.078 96.3C433.478 99.9667 425.478 101.8 415.078 101.8H410.178V125H394.578V56.7C397.978 56.0333 401.578 55.5667 405.378 55.3C409.178 55.0333 412.511 54.9 415.378 54.9ZM416.378 68.2C415.245 68.2 414.111 68.2333 412.978 68.3C411.911 68.3667 410.978 68.4333 410.178 68.5V88.5H415.078C420.478 88.5 424.545 87.7667 427.278 86.3C430.011 84.8333 431.378 82.1 431.378 78.1C431.378 76.1667 431.011 74.5667 430.278 73.3C429.611 72.0333 428.611 71.0333 427.278 70.3C426.011 69.5 424.445 68.9667 422.578 68.7C420.711 68.3667 418.645 68.2 416.378 68.2ZM511.603 55.7V69H490.703V125H475.103V69H454.203V55.7H511.603Z" fill="#282626"/>
</svg>
